HIERARCHY
ROOT pelvis
{
  OFFSET 0 100 0
  CHANNELS 6 Xposition Yposition Zposition Zrotation Xrotation Yrotation
  JOINT pelvis_right_femur
  {
    OFFSET -10.78128 -3.44521 -0.5502486
    CHANNELS 3 Zrotation Xrotation Yrotation
    JOINT right_femur_tibia
    {
      OFFSET -0.8047443 -44.0398 -0.1307829
      CHANNELS 3 Zrotation Xrotation Yrotation
      JOINT right_tibia_foot
      {
        OFFSET 3.006224 -47.83518 -5
        CHANNELS 3 Zrotation Xrotation Yrotation
        End Site
        {
          OFFSET 0 -5 15
        }
      }
    }
  }
  JOINT pelvis_left_femur
  {
    OFFSET 10.78128 -3.44521 -0.5502486
    CHANNELS 3 Zrotation Xrotation Yrotation
    JOINT left_femur_tibia
    {
      OFFSET 0.8047443 -44.0398 -0.1307829
      CHANNELS 3 Zrotation Xrotation Yrotation
      JOINT left_tibia_foot
      {
        OFFSET -4.370144 -48.10324 -4.275266
        CHANNELS 3 Zrotation Xrotation Yrotation
        End Site
        {
          OFFSET 0 -5 15
        }
      }
    }
  }
  JOINT pelvis_spine1
  {
    OFFSET 0 6.468898 -3.129235
    CHANNELS 3 Zrotation Xrotation Yrotation
    JOINT spine1
    {
      OFFSET 0 23.15396 4.99043
      CHANNELS 3 Zrotation Xrotation Yrotation
      JOINT spine2
      {
        OFFSET 0 20.79997 -5.064912
        CHANNELS 3 Zrotation Xrotation Yrotation
        JOINT neck
        {
          OFFSET 0 14.38658 9.616178
          CHANNELS 3 Zrotation Xrotation Yrotation
          End Site
          {
            OFFSET 0 20 0
          }
        }
      }
      JOINT right_manubrium
      {
        OFFSET -5.722621 16.35077 3.967754
        CHANNELS 3 Zrotation Xrotation Yrotation
        JOINT right_clavicle
        {
          OFFSET -13.16364 1.694482 -4.693211
          CHANNELS 3 Zrotation Xrotation Yrotation
          JOINT right_humerus
          {
            OFFSET -28.5034 -0.3100689 -2.792744
            CHANNELS 3 Zrotation Xrotation Yrotation
            JOINT right_radius
            {
              OFFSET -25.15693 0.02248979 -1.271978
              CHANNELS 3 Zrotation Xrotation Yrotation
              End Site
              {
                OFFSET -15 0 0
              }
            }
          }
        }
      }
      JOINT left_manubrium
      {
        OFFSET 5.722621 16.35077 3.967754
        CHANNELS 3 Zrotation Xrotation Yrotation
        JOINT left_clavicle
        {
          OFFSET 13.16364 1.694482 -4.693211
          CHANNELS 3 Zrotation Xrotation Yrotation
          JOINT left_humerus
          {
            OFFSET 29.39168 -1.063119 -2.237045
            CHANNELS 3 Zrotation Xrotation Yrotation
            JOINT left_radius
            {
              OFFSET 24.59957 -0.9528479 0.9047498
              CHANNELS 3 Zrotation Xrotation Yrotation
              End Site
              {
                OFFSET 15 -0 -0
              }
            }
          }
        }
      }
    }
  }
}
MOTION
Frames: 9
Frame Time: 0.0416666666667
0 103.5113 0 2.718593 -2.862415 0.2865241 0.5092098 -9.819012 7.271105 -0 37.19996 -0 -4.936905 -18.16013 -3.275742 -8.031663 11.15248 -23.12759 -0 4.707548 -0 7.498488 -15.23007 25.10516 -2.152401 -3.328258 5.588074 2.935975 10.30849 -7.614565 1.513566 21.46619 5.501514 2.4033 -25.21984 8.930834 5.524551 -19.33932 10.87961 86.24582 33.11439 -20.36762 -0 0 15.02188 -5.656969 8.462922 2.371822 6.363883 -21.85288 -1.983749 -96.10141 25.05252 25.19163 0 0 -14.62151 9.817928 17.38704 3.1381
0.279717 103.2961 1.360976 1.940171 -1.941735 0.2784683 1.791337 -13.10684 8.177999 -0 38.1511 -0 -5.024083 -17.95059 -3.436889 -7.605898 11.53635 -23.64614 -0 5.00198 -0 7.210543 -16.32196 25.87175 -2.129091 -3.266842 5.573349 2.888021 10.30214 -7.566362 1.522821 21.47296 5.514324 2.433899 -25.15904 8.914881 5.535825 -19.27462 10.87388 86.19677 33.21218 -20.23978 -0 0 14.95109 -5.833715 8.543715 2.497717 6.37002 -21.81336 -1.955441 -95.99308 24.98321 25.04922 0 0 -14.58035 9.827351 17.32821 3.107227
0.5401558 102.4835 3.582179 0.8955927 -2.107586 0.3628595 2.335819 -19.12731 3.194058 -0 30.02958 -0 -8.043662 -11.51446 -1.964464 -6.677172 12.48274 -20.67837 -0 4.292416 -0 4.309376 -20.1338 22.76705 -2.162245 -3.513349 5.608832 3.091355 10.31859 -7.826794 1.480024 21.37836 5.48634 2.306173 -25.52987 9.014435 5.584143 -19.44076 10.8999 86.52745 33.05424 -21.0646 -0 0 15.09107 -4.96316 8.152105 2.055923 6.347151 -21.9313 -2.007909 -96.3498 25.69006 25.56087 0 0 -15.31235 9.422305 17.37137 3.724111
0.7801178 101.9798 5.58132 0.1291779 -0.3063075 0.3424901 4.308251 -22.22578 6.655588 -0 32.72079 -0 -6.829356 -12.76265 -2.816395 -6.349839 12.17711 -21.79315 -0 4.924519 -0 4.954643 -20.34391 24.20872 -2.109719 -3.610985 5.594833 3.191769 10.30601 -7.997848 1.48017 21.26403 5.499124 2.274268 -25.82789 9.100343 5.649075 -19.46189 10.91892 86.75821 33.03869 -21.61303 -0 0 15.12288 -4.520752 7.993352 1.826401 6.402726 -21.99285 -1.940092 -96.48542 26.09528 25.69226 0 0 -15.7755 9.212054 17.37871 4.059814
1.043215 101.262 8.03535 -0.1928057 1.207775 0.4167673 5.424551 -26.74879 6.559352 -0 28.04254 -0 -6.425705 -10.62555 -2.31984 -6.417816 12.17218 -20.3834 -0 5.080417 -0 7.12692 -20.72178 24.09818 -1.972455 -3.624022 5.54929 3.237057 10.27744 -8.146615 1.506275 21.09498 5.547996 2.308303 -26.14064 9.189169 5.750189 -19.38402 10.94239 86.97799 33.16152 -22.10489 -0 0 15.08012 -4.302473 7.980648 1.723805 6.523467 -22.02842 -1.767376 -96.47255 26.3853 25.58821 0 0 -16.20412 9.055931 17.32167 4.323978
1.322346 100.4779 10.72686 -0.6555062 2.348277 0.5310231 6.571693 -29.68463 7.337021 -0 25.98983 -0 -6.070242 -9.388325 -2.305007 -6.237925 12.10917 -19.90613 -0 5.705775 -0 7.412148 -21.30357 23.99672 -1.818883 -3.514779 5.497943 3.174713 10.26365 -8.168436 1.533994 20.9682 5.612703 2.40222 -26.23282 9.202489 5.846979 -19.21763 10.96115 87.05346 33.44312 -22.22711 -0 0 14.92757 -4.532462 8.161216 1.910014 6.619742 -21.99971 -1.600547 -96.23031 26.40902 25.24515 0 0 -16.45248 8.957334 17.1317 4.46439
1.625583 99.64686 13.76896 -1.136682 3.619159 0.7333025 7.833633 -32.78404 8.073303 -0 23.05357 -0 -5.740779 -7.686231 -2.147211 -6.098138 12.09698 -19.3067 -0 6.850057 -0 7.718214 -21.88222 23.75496 -1.627287 -3.345913 5.434222 3.074354 10.25735 -8.16668 1.564005 20.81885 5.70048 2.538212 -26.2737 9.188785 5.957619 -18.99946 10.98991 87.10391 33.80041 -22.2683 -0 0 14.7221 -4.972916 8.457783 2.221537 6.72921 -21.95653 -1.404404 -95.8661 26.30844 24.75659 0 0 -16.67392 8.868997 16.85335 4.576905
1.938282 98.67881 17.25366 -1.327655 4.166149 1.038402 8.041578 -34.74298 7.437935 -0 19.28559 -0 -5.71182 -5.563516 -1.853083 -6.005584 12.58563 -18.23073 -0 8.083801 -0 6.979588 -22.52972 22.47211 -1.428454 -3.118818 5.362807 2.938355 10.26316 -8.125479 1.589334 20.67786 5.802461 2.704341 -26.21303 9.133726 6.063187 -18.74368 11.0257 87.098 34.19274 -22.16326 -0 0 14.46598 -5.645091 8.862417 2.668308 6.825469 -21.89242 -1.213975 -95.38735 26.0507 24.14073 0 0 -16.81302 8.800237 16.49 4.634685
2.25201 97.6372 21.31954 -1.382707 4.381499 1.501218 7.75464 -36.0182 6.189301 -0 15.1953 -0 -5.798574 -3.22564 -1.496154 -5.932362 13.51747 -16.83886 -0 9.961026 -0 5.711496 -22.8539 20.51241 -1.224443 -2.849935 5.279955 2.788351 10.28009 -8.072893 1.606226 20.53472 5.921028 2.893161 -26.08294 9.045957 6.164235 -18.46029 11.07241 87.06714 34.58301 -21.98688 -0 0 14.16734 -6.490592 9.347256 3.215003 6.90981 -21.81761 -1.03205 -94.82138 25.68111 23.42261 0 0 -16.92017 8.718444 16.04053 4.682238
